<svg width="20" height="20" viewBox="0 0 20 20" fill="none" xmlns="http://www.w3.org/2000/svg">
<path fill-rule="evenodd" clip-rule="evenodd" d="M8.21934 14.7807C8.35997 14.9211 8.55059 15 8.74934 15C8.94809 15 9.13871 14.9211 9.27934 14.7807L13.5293 10.5307C13.6698 10.39 13.7487 10.1994 13.7487 10.0007C13.7487 9.80191 13.6698 9.61129 13.5293 9.47066L9.27934 5.22066C9.13717 5.08818 8.94912 5.01606 8.75482 5.01948C8.56052 5.02291 8.37513 5.10163 8.23772 5.23904C8.10031 5.37645 8.02159 5.56184 8.01817 5.75614C8.01474 5.95044 8.08686 6.13848 8.21934 6.28066L11.9393 10.0007L8.21934 13.7207C8.07889 13.8613 8 14.0519 8 14.2507C8 14.4494 8.07889 14.64 8.21934 14.7807Z" fill="#818AA3"/>
</svg>
