<svg width="14" height="14" viewBox="0 0 14 14" fill="none" xmlns="http://www.w3.org/2000/svg">
<g clip-path="url(#clip0_27206_6075)">
<path d="M7.91992 7.00046L9.28472 8.56046L11.1199 9.73326L11.4399 7.01006L11.1199 4.34766L9.24952 5.37806L7.91992 7.00046Z" fill="#00832D"/>
<path d="M0 9.48V11.8C0 12.3304 0.4296 12.76 0.96 12.76H3.28L3.76 11.0064L3.28 9.48L1.688 9L0 9.48Z" fill="#0066DA"/>
<path d="M3.28 1.24023L0 4.52023L1.688 5.00023L3.28 4.52023L3.752 3.01463L3.28 1.24023Z" fill="#E94235"/>
<path d="M3.28 4.51953H0V9.47953H3.28V4.51953Z" fill="#2684FC"/>
<path d="M13.2153 2.62929L11.1193 4.34769V9.73329L13.2249 11.4597C13.5401 11.7061 14.0009 11.4813 14.0009 11.0805V3.00049C14.0009 2.59489 13.5297 2.37249 13.2153 2.62929ZM7.9193 7.00049V9.48049H3.2793V12.7605H10.1593C10.6897 12.7605 11.1193 12.3309 11.1193 11.8005V9.73329L7.9193 7.00049Z" fill="#00AC47"/>
<path d="M10.1593 1.24023H3.2793V4.52023H7.9193V7.00023L11.1193 4.34903V2.20023C11.1193 1.66983 10.6897 1.24023 10.1593 1.24023Z" fill="#FFBA00"/>
</g>
<defs>
<clipPath id="clip0_27206_6075">
<rect width="14" height="11.52" fill="white" transform="translate(0 1.24023)"/>
</clipPath>
</defs>
</svg>
