<svg width="16" height="16" viewBox="0 0 16 16" fill="none" xmlns="http://www.w3.org/2000/svg">
<path fill-rule="evenodd" clip-rule="evenodd" d="M3.39961 1.59961C2.92222 1.59961 2.46438 1.78925 2.12682 2.12682C1.78925 2.46438 1.59961 2.92222 1.59961 3.39961V5.39961C1.59961 5.877 1.78925 6.33484 2.12682 6.6724C2.46438 7.00997 2.92222 7.19961 3.39961 7.19961H5.39961C5.877 7.19961 6.33484 7.00997 6.6724 6.6724C7.00997 6.33484 7.19961 5.877 7.19961 5.39961V3.39961C7.19961 2.92222 7.00997 2.46438 6.6724 2.12682C6.33484 1.78925 5.877 1.59961 5.39961 1.59961H3.39961ZM3.39961 8.79961C2.92222 8.79961 2.46438 8.98925 2.12682 9.32682C1.78925 9.66438 1.59961 10.1222 1.59961 10.5996V12.5996C1.59961 13.077 1.78925 13.5348 2.12682 13.8724C2.46438 14.21 2.92222 14.3996 3.39961 14.3996H5.39961C5.877 14.3996 6.33484 14.21 6.6724 13.8724C7.00997 13.5348 7.19961 13.077 7.19961 12.5996V10.5996C7.19961 10.1222 7.00997 9.66438 6.6724 9.32682C6.33484 8.98925 5.877 8.79961 5.39961 8.79961H3.39961ZM10.5996 1.59961C10.1222 1.59961 9.66438 1.78925 9.32682 2.12682C8.98925 2.46438 8.79961 2.92222 8.79961 3.39961V5.39961C8.79961 5.877 8.98925 6.33484 9.32682 6.6724C9.66438 7.00997 10.1222 7.19961 10.5996 7.19961H12.5996C13.077 7.19961 13.5348 7.00997 13.8724 6.6724C14.21 6.33484 14.3996 5.877 14.3996 5.39961V3.39961C14.3996 2.92222 14.21 2.46438 13.8724 2.12682C13.5348 1.78925 13.077 1.59961 12.5996 1.59961H10.5996ZM10.5996 8.79961C10.1222 8.79961 9.66438 8.98925 9.32682 9.32682C8.98925 9.66438 8.79961 10.1222 8.79961 10.5996V12.5996C8.79961 13.077 8.98925 13.5348 9.32682 13.8724C9.66438 14.21 10.1222 14.3996 10.5996 14.3996H12.5996C13.077 14.3996 13.5348 14.21 13.8724 13.8724C14.21 13.5348 14.3996 13.077 14.3996 12.5996V10.5996C14.3996 10.1222 14.21 9.66438 13.8724 9.32682C13.5348 8.98925 13.077 8.79961 12.5996 8.79961H10.5996Z" fill="#818AA3"/>
</svg>
