<svg width="16" height="16" viewBox="0 0 16 16" fill="none" xmlns="http://www.w3.org/2000/svg">
<path fill-rule="evenodd" clip-rule="evenodd" d="M6.0868 1.6432C6.12304 1.46191 6.22094 1.29877 6.36387 1.18151C6.5068 1.06425 6.68593 1.00011 6.8708 1H8.7588C8.94367 1.00011 9.1228 1.06425 9.26573 1.18151C9.40866 1.29877 9.50657 1.46191 9.5428 1.6432L9.8076 2.9648C10.3664 3.17775 10.8874 3.4789 11.3508 3.8568L12.6292 3.4248C12.8043 3.36562 12.9945 3.3689 13.1675 3.43409C13.3405 3.49928 13.4855 3.62236 13.578 3.7824L14.522 5.4176C14.6145 5.57767 14.6487 5.76485 14.6188 5.94731C14.5889 6.12976 14.4968 6.29623 14.358 6.4184L13.3444 7.3088C13.4389 7.89917 13.4389 8.50083 13.3444 9.0912L14.358 9.9816C14.4967 10.1036 14.5889 10.2699 14.619 10.4522C14.649 10.6345 14.615 10.8215 14.5228 10.9816L13.5788 12.6176C13.4863 12.7778 13.3411 12.901 13.1679 12.9662C12.9948 13.0314 12.8044 13.0346 12.6292 12.9752L11.3508 12.5432C10.8874 12.9211 10.3664 13.2223 9.8076 13.4352L9.5436 14.7568C9.50737 14.9381 9.40946 15.1012 9.26653 15.2185C9.1236 15.3357 8.94447 15.3999 8.7596 15.4H6.8708C6.68593 15.3999 6.5068 15.3357 6.36387 15.2185C6.22094 15.1012 6.12304 14.9381 6.0868 14.7568L5.822 13.4352C5.26323 13.2223 4.74222 12.9211 4.2788 12.5432L3.0004 12.9752C2.82529 13.0344 2.63508 13.0311 2.46211 12.9659C2.28914 12.9007 2.14409 12.7776 2.0516 12.6176L1.1076 10.9824C1.01508 10.8223 0.980857 10.6351 1.01076 10.4527C1.04065 10.2702 1.13283 10.1038 1.2716 9.9816L2.2852 9.0904C2.19081 8.50028 2.19081 7.89892 2.2852 7.3088L1.2716 6.4184C1.13289 6.29638 1.04069 6.13011 1.01065 5.94782C0.980608 5.76554 1.01458 5.57848 1.1068 5.4184L2.0508 3.7824C2.14332 3.62218 2.28851 3.49899 2.46165 3.43378C2.63479 3.36858 2.82518 3.36541 3.0004 3.4248L4.2788 3.8568C4.74247 3.47883 5.26375 3.17767 5.8228 2.9648L6.0868 1.6432ZM7.8148 10.6C8.45132 10.6 9.06177 10.3471 9.51186 9.89706C9.96194 9.44697 10.2148 8.83652 10.2148 8.2C10.2148 7.56348 9.96194 6.95303 9.51186 6.50294C9.06177 6.05286 8.45132 5.8 7.8148 5.8C7.17828 5.8 6.56783 6.05286 6.11774 6.50294C5.66766 6.95303 5.4148 7.56348 5.4148 8.2C5.4148 8.83652 5.66766 9.44697 6.11774 9.89706C6.56783 10.3471 7.17828 10.6 7.8148 10.6Z" fill="#818AA3"/>
</svg>
